{"title":"Lone Survivor (2013) BRrip 720p x264 Dual Audio [Eng DD 5.1-Hind","uid":10750375,"size":1941552855,"categoryP":"video","categoryS":"hd___movies","magnet":"?xt=urn:btih:6de2965d1056db439daf701595fbaedd5b543cb3&amp;dn=Lone+Survivor+%282013%29+BRrip+720p+x264+Dual+Audio+%5BEng+DD+5.1-Hind&amp;tr=udp%3A%2F%2Ftracker.openbittorrent.com%3A80&amp;tr=udp%3A%2F%2Fopen.demonii.com%3A1337&amp;tr=udp%3A%2F%2Ftracker.coppersurfer.tk%3A6969&amp;tr=udp%3A%2F%2Fexodus.desync.com%3A6969","seeders":9,"leechers":2,"uploader":"Xdesiars","files":4,"time":1407867172,"description":"Format                                   : Matroska\nFormat version                           : Version 2\nFile size                                : 1.80 GiB\nDuration                                 : 2h 1mn\nOverall bit rate                         : 2 120 Kbps\nMovie name                               : Lone Survivor (2013) by XdesiArsenal [ExD-XMR]\nEncoded date                             : UTC 2014-08-12 15:31:58\nWriting application                      : mkvmerge v5.0.1 ('Es ist Sommer') built on Nov 23 2011 20:48:57\nWriting library                          : libebml v1.2.2 + libmatroska v1.3.0\nCover                                    : Cover\n\nVideo\nID                                       : 1\nFormat                                   : AVC\nFormat/Info                              : Advanced Video Codec\nFormat profile                           : &lt;a class=&quot;__cf_email__&quot; href=&quot;/cdn-cgi/l/email-protection&quot; data-cfemail=&quot;efa28e8681afa3dcc1de&quot;&gt;[email&amp;#160;protected]&lt;/a&gt;&lt;script cf-hash='f9e31' type=&quot;text/javascript&quot;&gt;\n/* &lt;![CDATA[ */!function(){try{var t=&quot;currentScript&quot;in document?document.currentScript:function(){for(var t=document.getElementsByTagName(&quot;script&quot;),e=t.length;e--;)if(t[e].getAttribute(&quot;cf-hash&quot;))return t[e]}();if(t&amp;&amp;t.previousSibling){var e,r,n,i,c=t.previousSibling,a=c.getAttribute(&quot;data-cfemail&quot;);if(a){for(e=&quot;&quot;,r=parseInt(a.substr(0,2),16),n=2;a.length-n;n+=2)i=parseInt(a.substr(n,2),16)^r,e+=String.fromCharCode(i);e=document.createTextNode(e),c.parentNode.replaceChild(e,c)}}}catch(u){}}();/* ]]&gt; */&lt;/script&gt;\nFormat settings, CABAC                   : Yes\nFormat settings, ReFrames                : 4 frames\nMuxing mode                              : Header stripping\nCodec ID                                 : V_MPEG4/ISO/AVC\nDuration                                 : 2h 1mn\nBit rate                                 : 1 598 Kbps\nWidth                                    : 1 280 pixels\nHeight                                   : 544 pixels\nDisplay aspect ratio                     : 2.40:1\nFrame rate mode                          : Constant\nFrame rate                               : 23.976 fps\nColor space                              : YUV\nChroma subsampling                       : 4:2:0\nBit depth                                : 8 bits\nScan type                                : Progressive\nBits/(Pixel*Frame)                       : 0.096\nStream size                              : 1.35 GiB (75%)\nTitle                                    : Lone Survivor (2013) by XdesiArsenal [ExD-XMR]\nWriting library                          : x264 core 112/ crf=23.3 / qcomp=0.60 / qpmin=3 / qpmax=51 / qpstep=4 / ip_ratio=1.40 / aq=1:1.00\nLanguage                                 : English\nDefault                                  : Yes\nForced                                   : No\nColor primaries                          : BT.709\nTransfer characteristics                 : BT.709\nMatrix coefficients                      : BT.709\n\nAudio #1\nID                                       : 2\nFormat                                   : AC-3\nFormat/Info                              : Audio Coding 3\nMode extension                           : CM (complete main)\nFormat settings, Endianness              : Big\nMuxing mode                              : Header stripping\nCodec ID                                 : A_AC3\nDuration                                 : 2h 1mn\nBit rate mode                            : Constant\nBit rate                                 : 256 Kbps\nChannel(s)                               : 6 channels\nChannel positions                        : Front: L C R, Side: L R, LFE\nSampling rate                            : 48.0 KHz\nBit depth                                : 16 bits\nCompression mode                         : Lossy\nStream size                              : 222 MiB (12%)\nTitle                                    : XdesiArsenal\nLanguage                                 : English\nDefault                                  : Yes\nForced                                   : No\n\nAudio #2\nID                                       : 3\nFormat                                   : AC-3\nFormat/Info                              : Audio Coding 3\nMode extension                           : CM (complete main)\nFormat settings, Endianness              : Big\nMuxing mode                              : Header stripping\nCodec ID                                 : A_AC3\nDuration                                 : 2h 1mn\nBit rate mode                            : Constant\nBit rate                                 : 224 Kbps\nChannel(s)                               : 2 channels\nChannel positions                        : Front: L R\nSampling rate                            : 48.0 KHz\nBit depth                                : 16 bits\nCompression mode                         : Lossy\nDelay relative to video                  : 512ms\nStream size                              : 194 MiB (11%)\nTitle                                    : XdesiArsenal\nLanguage                                 : Hindi\nDefault                                  : No\nForced                                   : No\n\nMenu\n00:00:00.000                             : en:Chapter 1\n00:10:35.885                             : en:Chapter 2\n00:15:37.895                             : en:Chapter 3\n00:20:39.988                             : en:Chapter 4\n00:25:40.956                             : en:Chapter 5\n00:30:42.924                             : en:Chapter 6\n00:35:43.891                             : en:Chapter 7\n00:40:44.900                             : en:Chapter 8\n00:45:44.950                             : en:Chapter 9\n00:50:49.963                             : en:Chapter 10\n00:55:56.895                             : en:Chapter 11\n01:00:59.947                             : en:Chapter 12\n01:06:05.878                             : en:Chapter 13\n01:11:06.887                             : en:Chapter 14\n01:16:09.982                             : en:Chapter 15\n01:21:11.908                             : en:Chapter 16\n01:26:12.959                             : en:Chapter 17\n01:31:14.886                             : en:Chapter 18\n01:36:14.894                             : en:Chapter 19\n01:41:15.903                             : en:Chapter 20\n01:46:19.915                             : en:Chapter 21\n01:51:19.881                             : en:Chapter 22\n","torrent":{"xt":"urn:btih:6de2965d1056db439daf701595fbaedd5b543cb3","amp;dn":"Lone+Survivor+%282013%29+BRrip+720p+x264+Dual+Audio+%5BEng+DD+5.1-Hind","amp;tr":["udp%3A%2F%2Ftracker.openbittorrent.com%3A80","udp%3A%2F%2Fopen.demonii.com%3A1337","udp%3A%2F%2Ftracker.coppersurfer.tk%3A6969","udp%3A%2F%2Fexodus.desync.com%3A6969"],"infoHash":"6de2965d1056db439daf701595fbaedd5b543cb3","infoHashBuffer":{"type":"Buffer","data":[109,226,150,93,16,86,219,67,157,175,112,21,149,251,174,221,91,84,60,179]},"announce":[],"urlList":[]}}